<svg xmlns="http://www.w3.org/2000/svg" viewBox="0 0 1280 340" width="1280" height="340" font-family="'Segoe UI', Helvetica, Arial, sans-serif">
  <defs>
    <radialGradient id="aboutGlow" cx="18%" cy="30%" r="80%">
      <stop offset="0%" stop-color="#7F1D1D" stop-opacity="0.55"/>
      <stop offset="45%" stop-color="#4C1D95" stop-opacity="0.30"/>
      <stop offset="100%" stop-color="#0B0B0D" stop-opacity="0"/>
    </radialGradient>
    <radialGradient id="learnGlow" cx="80%" cy="20%" r="90%">
      <stop offset="0%" stop-color="#0EA5E9" stop-opacity="0.45"/>
      <stop offset="100%" stop-color="#0B0B0D" stop-opacity="0"/>
    </radialGradient>
    <radialGradient id="craftGlow" cx="80%" cy="25%" r="90%">
      <stop offset="0%" stop-color="#F59E0B" stop-opacity="0.38"/>
      <stop offset="100%" stop-color="#0B0B0D" stop-opacity="0"/>
    </radialGradient>
    <clipPath id="cAbout"><rect x="0" y="0" width="836" height="340" rx="22"/></clipPath>
    <clipPath id="cLearn"><rect x="860" y="0" width="420" height="158" rx="22"/></clipPath>
    <clipPath id="cCraft"><rect x="860" y="182" width="420" height="158" rx="22"/></clipPath>
  </defs>

  <!-- ABOUT -->
  <g clip-path="url(#cAbout)">
    <rect x="0" y="0" width="836" height="340" fill="#0B0B0D"/>
    <rect x="0" y="0" width="836" height="340" fill="url(#aboutGlow)"/>
  </g>
  <rect x="0.5" y="0.5" width="835" height="339" rx="22" fill="none" stroke="#1E1E24"/>
  <text x="44" y="58" font-size="13" font-weight="600" letter-spacing="4" fill="#8A8A93">ABOUT</text>
  <text x="42" y="150" font-size="42" font-weight="800" fill="#F4F4F6">Breaking things</text>
  <text x="42" y="202" font-size="42" font-weight="800" fill="#F4F4F6">to understand them.</text>
  <text x="44" y="286" font-size="16" font-weight="500" letter-spacing="1" fill="#8E8E97"
        font-family="'JetBrains Mono', Consolas, monospace">&gt; open to collaborations</text>
  <rect x="336" y="274" width="11" height="17" fill="#B91C1C"/>

  <!-- LEARNING -->
  <g clip-path="url(#cLearn)">
    <rect x="860" y="0" width="420" height="158" fill="#0B0B0D"/>
    <rect x="860" y="0" width="420" height="158" fill="url(#learnGlow)"/>
  </g>
  <rect x="860.5" y="0.5" width="419" height="157" rx="22" fill="none" stroke="#1E1E24"/>
  <g fill="none" stroke="#7FD3F5" stroke-opacity="0.7">
    <circle cx="1210" cy="46" r="26"/>
    <circle cx="1210" cy="46" r="16"/>
  </g>
  <circle cx="1210" cy="46" r="5" fill="#7FD3F5"/>
  <text x="892" y="120" font-size="21" font-weight="700" letter-spacing="2" fill="#E6E6EC">ALWAYS LEARNING</text>
  <text x="892" y="52" font-size="12" font-weight="600" letter-spacing="3" fill="#7A7A83">STATUS</text>

  <!-- CRAFT -->
  <g clip-path="url(#cCraft)">
    <rect x="860" y="182" width="420" height="158" fill="#0B0B0D"/>
    <rect x="860" y="182" width="420" height="158" fill="url(#craftGlow)"/>
  </g>
  <rect x="860.5" y="182.5" width="419" height="157" rx="22" fill="none" stroke="#1E1E24"/>
  <path d="M1210 210 l7.6 15.4 17 2.5 -12.3 12 2.9 16.9 -15.2 -8 -15.2 8 2.9 -16.9 -12.3 -12 17 -2.5 Z"
        fill="#F5B301"/>
  <text x="892" y="302" font-size="21" font-weight="700" letter-spacing="2" fill="#E6E6EC">CRAFT MATTERS</text>
  <text x="892" y="234" font-size="12" font-weight="600" letter-spacing="3" fill="#7A7A83">ETHOS</text>
</svg>
