<svg xmlns="http://www.w3.org/2000/svg" viewBox="0 0 1280 300" width="1280" height="300" font-family="'Segoe UI', Helvetica, Arial, sans-serif">
  <defs>
    <radialGradient id="aboutGlow" cx="16%" cy="28%" r="75%">
      <stop offset="0%" stop-color="#7F1D1D" stop-opacity="0.50"/>
      <stop offset="42%" stop-color="#4C1D95" stop-opacity="0.28"/>
      <stop offset="100%" stop-color="#101014" stop-opacity="0"/>
    </radialGradient>
    <radialGradient id="learnGlow" cx="82%" cy="18%" r="95%">
      <stop offset="0%" stop-color="#0EA5E9" stop-opacity="0.42"/>
      <stop offset="100%" stop-color="#101014" stop-opacity="0"/>
    </radialGradient>
    <radialGradient id="craftGlow" cx="82%" cy="25%" r="95%">
      <stop offset="0%" stop-color="#F59E0B" stop-opacity="0.34"/>
      <stop offset="100%" stop-color="#101014" stop-opacity="0"/>
    </radialGradient>
    <clipPath id="cAbout"><rect x="0" y="0" width="836" height="300" rx="22"/></clipPath>
    <clipPath id="cLearn"><rect x="860" y="0" width="420" height="140" rx="22"/></clipPath>
    <clipPath id="cCraft"><rect x="860" y="160" width="420" height="140" rx="22"/></clipPath>
  </defs>

  <!-- ABOUT -->
  <g clip-path="url(#cAbout)">
    <rect x="0" y="0" width="836" height="300" fill="#101014"/>
    <rect x="0" y="0" width="836" height="300" fill="url(#aboutGlow)"/>
  </g>
  <rect x="0.5" y="0.5" width="835" height="299" rx="22" fill="none" stroke="#26262E"/>
  <text x="44" y="52" font-size="13" font-weight="600" letter-spacing="4" fill="#9A9AA4">ABOUT</text>
  <text x="42" y="140" font-size="40" font-weight="800" fill="#F4F4F6">Breaking things</text>
  <text x="42" y="188" font-size="40" font-weight="800" fill="#F4F4F6">to understand them.</text>
  <text x="44" y="256" font-size="16" font-weight="500" letter-spacing="0.5" fill="#9A9AA4"
        font-family="'JetBrains Mono', Consolas, monospace">&gt; open to collaborations</text>
  <rect x="282" y="244" width="10" height="16" fill="#B91C1C"/>

  <!-- LEARNING -->
  <g clip-path="url(#cLearn)">
    <rect x="860" y="0" width="420" height="140" fill="#101014"/>
    <rect x="860" y="0" width="420" height="140" fill="url(#learnGlow)"/>
  </g>
  <rect x="860.5" y="0.5" width="419" height="139" rx="22" fill="none" stroke="#26262E"/>
  <text x="892" y="50" font-size="12" font-weight="600" letter-spacing="3" fill="#7A7A83">STATUS</text>
  <g fill="none" stroke="#7FD3F5" stroke-opacity="0.75">
    <circle cx="1214" cy="44" r="24"/>
    <circle cx="1214" cy="44" r="14"/>
  </g>
  <circle cx="1214" cy="44" r="4.5" fill="#7FD3F5"/>
  <text x="892" y="106" font-size="22" font-weight="700" letter-spacing="2" fill="#E8E8EE">ALWAYS LEARNING</text>

  <!-- CRAFT -->
  <g clip-path="url(#cCraft)">
    <rect x="860" y="160" width="420" height="140" fill="#101014"/>
    <rect x="860" y="160" width="420" height="140" fill="url(#craftGlow)"/>
  </g>
  <rect x="860.5" y="160.5" width="419" height="139" rx="22" fill="none" stroke="#26262E"/>
  <text x="892" y="210" font-size="12" font-weight="600" letter-spacing="3" fill="#7A7A83">ETHOS</text>
  <path d="M1214 178 l7.3 14.8 16.3 2.4 -11.8 11.5 2.8 16.3 -14.6 -7.7 -14.6 7.7 2.8 -16.3 -11.8 -11.5 16.3 -2.4 Z"
        fill="#F5B301"/>
  <text x="892" y="266" font-size="22" font-weight="700" letter-spacing="2" fill="#E8E8EE">CRAFT MATTERS</text>
</svg>
