<svg xmlns="http://www.w3.org/2000/svg" viewBox="0 0 1280 440" width="1280" height="440" font-family="'Segoe UI', Helvetica, Arial, sans-serif">
  <defs>
    <radialGradient id="glowV" cx="50%" cy="50%" r="50%">
      <stop offset="0%" stop-color="#6D28D9" stop-opacity="0.55"/>
      <stop offset="100%" stop-color="#6D28D9" stop-opacity="0"/>
    </radialGradient>
    <radialGradient id="glowT" cx="50%" cy="50%" r="50%">
      <stop offset="0%" stop-color="#0EA5E9" stop-opacity="0.40"/>
      <stop offset="100%" stop-color="#0EA5E9" stop-opacity="0"/>
    </radialGradient>
    <radialGradient id="glowR" cx="50%" cy="50%" r="50%">
      <stop offset="0%" stop-color="#B91C1C" stop-opacity="0.38"/>
      <stop offset="100%" stop-color="#B91C1C" stop-opacity="0"/>
    </radialGradient>
    <linearGradient id="title" x1="0" y1="0" x2="0" y2="1">
      <stop offset="0%" stop-color="#FFFFFF"/>
      <stop offset="100%" stop-color="#C9C9CF"/>
    </linearGradient>
  </defs>

  <rect width="1280" height="440" rx="0" fill="#08080A"/>
  <ellipse cx="330" cy="150" rx="440" ry="300" fill="url(#glowV)"/>
  <ellipse cx="980" cy="330" rx="460" ry="300" fill="url(#glowT)"/>
  <ellipse cx="660" cy="250" rx="360" ry="240" fill="url(#glowR)"/>

  <g fill="none" stroke="#FFFFFF" stroke-opacity="0.05">
    <circle cx="640" cy="205" r="150"/>
    <circle cx="640" cy="205" r="205"/>
    <circle cx="640" cy="205" r="260"/>
  </g>

  <text x="640" y="228" text-anchor="middle" font-size="94" font-weight="800"
        letter-spacing="8" fill="url(#title)">ZAUFANY</text>

  <text x="640" y="276" text-anchor="middle" font-size="16.5" font-weight="500"
        letter-spacing="7" fill="#9A9AA4">REVERSE&#160;ENGINEER&#160;&#160;·&#160;&#160;SECURITY&#160;RESEARCHER&#160;&#160;·&#160;&#160;EMBEDDED</text>

  <g font-size="14" letter-spacing="1" fill="#B6B6BE" text-anchor="middle">
    <rect x="335" y="312" width="200" height="38" rx="19" fill="#0F0F13" stroke="#26262C"/>
    <text x="435" y="336.5">reverse engineering</text>
    <rect x="553" y="312" width="190" height="38" rx="19" fill="#0F0F13" stroke="#26262C"/>
    <text x="648" y="336.5">offensive security</text>
    <rect x="761" y="312" width="185" height="38" rx="19" fill="#0F0F13" stroke="#26262C"/>
    <text x="853.5" y="336.5">embedded systems</text>
  </g>
</svg>
